<svg width="723" height="856" viewBox="0 0 723 856" fill="none" xmlns="http://www.w3.org/2000/svg">
<path d="M262 73.3333L412 0H462V550H362C306.772 550 262 505.228 262 450V73.3333Z" fill="url(#paint0_linear_336_2)"/>
<path d="M22 70L172 0H222V350H122C66.7715 350 22 305.228 22 250V70Z" fill="#3055D8"/>
<path d="M502 200H702V250C702 305.228 657.228 350 602 350H502V200Z" fill="#142359"/>
<path d="M502 400H702V450C702 505.228 657.228 550 602 550H502V400Z" fill="#142359"/>
<path d="M7.42031 759.932V733.841L86.4107 627.563H127.103L49.7879 733.841L30.8781 728.335H162.768V759.932H7.42031ZM97.6608 795.118V759.932L98.8576 728.335V696.979H135.48V795.118H97.6608Z" fill="#3055D8"/>
<path d="M234.925 797.033C219.766 797.033 207.957 793.203 199.499 785.544C191.042 777.724 186.813 766.155 186.813 750.836V637.856H224.154V750.357C224.154 755.783 225.59 760.011 228.462 763.043C231.335 765.916 235.244 767.352 240.191 767.352C246.096 767.352 251.122 765.756 255.271 762.565L265.325 788.895C261.495 791.607 256.867 793.682 251.441 795.118C246.175 796.395 240.67 797.033 234.925 797.033ZM166.946 697.936V669.212H256.229V697.936H166.946ZM346.222 797.033C331.541 797.033 318.616 794.161 307.445 788.416C296.435 782.671 287.897 774.852 281.833 764.958C275.769 754.905 272.737 743.495 272.737 730.729C272.737 717.803 275.69 706.394 281.594 696.5C287.658 686.447 295.876 678.627 306.248 673.042C316.621 667.297 328.35 664.425 341.435 664.425C354.042 664.425 365.372 667.138 375.425 672.563C385.638 677.829 393.696 685.489 399.601 695.542C405.505 705.436 408.457 717.325 408.457 731.208C408.457 732.644 408.377 734.32 408.218 736.234C408.058 737.99 407.899 739.665 407.739 741.261H303.137V719.479H388.111L373.749 725.942C373.749 719.24 372.393 713.415 369.68 708.468C366.967 703.521 363.217 699.691 358.43 696.979C353.643 694.106 348.058 692.67 341.674 692.67C335.291 692.67 329.626 694.106 324.68 696.979C319.892 699.691 316.142 703.601 313.429 708.707C310.717 713.654 309.36 719.559 309.36 726.42V732.165C309.36 739.187 310.876 745.41 313.908 750.836C317.1 756.102 321.488 760.171 327.073 763.043C332.818 765.756 339.52 767.112 347.18 767.112C354.042 767.112 360.026 766.075 365.132 764.001C370.398 761.926 375.186 758.815 379.494 754.666L399.361 776.208C393.457 782.911 386.037 788.097 377.1 791.767C368.164 795.278 357.871 797.033 346.222 797.033ZM495.552 797.033C481.669 797.033 469.302 794.24 458.451 788.655C447.6 782.911 439.062 775.012 432.839 764.958C426.775 754.905 423.743 743.495 423.743 730.729C423.743 717.803 426.775 706.394 432.839 696.5C439.062 686.447 447.6 678.627 458.451 673.042C469.302 667.297 481.669 664.425 495.552 664.425C509.116 664.425 520.925 667.297 530.978 673.042C541.032 678.627 548.452 686.686 553.239 697.218L524.276 712.777C520.925 706.713 516.696 702.245 511.59 699.372C506.643 696.5 501.217 695.064 495.313 695.064C488.93 695.064 483.185 696.5 478.079 699.372C472.972 702.245 468.903 706.314 465.871 711.58C462.999 716.846 461.563 723.229 461.563 730.729C461.563 738.229 462.999 744.612 465.871 749.878C468.903 755.144 472.972 759.213 478.079 762.086C483.185 764.958 488.93 766.394 495.313 766.394C501.217 766.394 506.643 765.038 511.59 762.325C516.696 759.453 520.925 754.905 524.276 748.681L553.239 764.479C548.452 774.852 541.032 782.911 530.978 788.655C520.925 794.24 509.116 797.033 495.552 797.033ZM652.31 664.425C662.523 664.425 671.619 666.5 679.598 670.648C687.736 674.638 694.119 680.861 698.747 689.319C703.375 697.617 705.688 708.309 705.688 721.394V795.118H668.348V727.139C668.348 716.766 666.034 709.106 661.406 704.16C656.938 699.213 650.555 696.739 642.257 696.739C636.352 696.739 631.007 698.016 626.219 700.569C621.592 702.963 617.921 706.713 615.209 711.819C612.655 716.926 611.379 723.468 611.379 731.447V795.118H574.038V617.51H611.379V702.005L603.001 691.234C607.629 682.617 614.251 675.994 622.868 671.367C631.485 666.739 641.299 664.425 652.31 664.425Z" fill="#142359"/>
<defs>
<linearGradient id="paint0_linear_336_2" x1="241.5" y1="207" x2="506.5" y2="209.5" gradientUnits="userSpaceOnUse">
<stop stop-color="#142359"/>
<stop offset="1" stop-color="#142359"/>
</linearGradient>
</defs>
</svg>
